<svg xmlns="http://www.w3.org/2000/svg" width="11" height="10" viewBox="0 0 11 10"><path fill="#FFC200" fill-rule="evenodd" d="M7.835 6.179a.426.426 0 0 0-.124.392l.603 3.01a.325.325 0 0 1-.12.323.302.302 0 0 1-.335.019L5.27 8.4a.4.4 0 0 0-.399 0L2.28 9.924a.297.297 0 0 1-.334-.019.324.324 0 0 1-.121-.322c.27-1.349.573-2.865.601-2.998a.424.424 0 0 0-.12-.406L.101 4.108a.325.325 0 0 1-.086-.334.31.31 0 0 1 .26-.218l2.964-.338a.409.409 0 0 0 .322-.244L4.788.17c.1-.228.463-.228.563 0l1.228 2.804c.06.135.182.227.323.243l2.964.338a.31.31 0 0 1 .26.218c.037.12.003.25-.086.334l-2.205 2.07z"/></svg>