<svg width="20" height="20" viewBox="0 0 20 20" xmlns="http://www.w3.org/2000/svg" xmlns:xlink="http://www.w3.org/1999/xlink"><defs><path d="M12.153 5.247l-.687.323-2.16 1.017c-.58.273-1.384.496-1.785.496h-.73v4.667h.73c.043 0 .093.004.146.009v2.324a1.17 1.17 0 0 0 1.167 1.167A1.17 1.17 0 0 0 10 14.083v-1.509l2.153 1.013c.58.273 1.056-.029 1.056-.67v-7c0-.642-.476-.943-1.056-.67zm2.635 2.54l.583-.583a.584.584 0 0 0-.825-.825l-.583.583a.583.583 0 1 0 .825.825zm.583 4.667a.584.584 0 0 0 0-.825l-.583-.583a.584.584 0 0 0-.825.825l.583.583a.58.58 0 0 0 .825 0zm1.046-3.038a.584.584 0 0 0-.583-.583h-1.167a.583.583 0 1 0 0 1.167h1.167a.583.583 0 0 0 .583-.584zM5.859 11.633a2.217 2.217 0 1 1 0-4.433v4.433z" id="a"/></defs><g fill="none" fill-rule="evenodd"><rect fill="#FFF" width="20" height="20" rx="4"/><path d="M3 3h14v14H3z"/><mask id="b" fill="#fff"><use xlink:href="#a"/></mask><use fill="#9FA6B0" xlink:href="#a"/><g mask="url(#b)" fill="#E5E7E9" fill-rule="nonzero"><rect width="13" height="13" rx="4" transform="translate(3.583 3.583)"/></g></g></svg>